<svg width="42" height="42" viewBox="0 0 42 42" fill="none" xmlns="http://www.w3.org/2000/svg">
<path fill-rule="evenodd" clip-rule="evenodd" d="M20.7 41.4C32.1323 41.4 41.4 32.1323 41.4 20.7C41.4 9.2677 32.1323 0 20.7 0C9.2677 0 0 9.2677 0 20.7C0 32.1323 9.2677 41.4 20.7 41.4ZM20.4743 20.3247C22.0292 20.3247 23.3757 19.7669 24.4759 18.6666C25.5761 17.5664 26.1338 16.2203 26.1338 14.6651C26.1338 13.1105 25.5761 11.7642 24.4757 10.6636C23.3754 9.56364 22.0291 9.00594 20.4743 9.00594C18.9191 9.00594 17.5729 9.56364 16.4728 10.6638C15.3726 11.764 14.8147 13.1103 14.8147 14.6651C14.8147 16.2203 15.3726 17.5666 16.4729 18.6668C17.5733 19.7668 18.9196 20.3247 20.4743 20.3247ZM30.377 27.0741C30.3452 26.6163 30.281 26.1168 30.1866 25.5894C30.0912 25.0581 29.9684 24.5558 29.8214 24.0967C29.6696 23.6221 29.463 23.1535 29.2078 22.7044C28.9428 22.2383 28.6316 21.8325 28.2824 21.4985C27.9172 21.1491 27.4701 20.8682 26.9531 20.6633C26.4379 20.4595 25.8669 20.3562 25.2561 20.3562C25.0162 20.3562 24.7843 20.4546 24.3363 20.7463C24.0606 20.9261 23.738 21.134 23.3781 21.364C23.0703 21.5602 22.6533 21.7439 22.1382 21.9103C21.6357 22.0729 21.1255 22.1553 20.622 22.1553C20.1184 22.1553 19.6084 22.0729 19.1053 21.9103C18.5908 21.7441 18.1739 21.5604 17.8664 21.3642C17.5098 21.1364 17.1872 20.9284 16.9073 20.7461C16.4599 20.4544 16.2277 20.356 15.9878 20.356C15.3769 20.356 14.8061 20.4595 14.291 20.6635C13.7744 20.868 13.3271 21.1489 12.9616 21.4987C12.6125 21.8328 12.3011 22.2385 12.0365 22.7044C11.7814 23.1535 11.5749 23.6219 11.4229 24.0968C11.2761 24.5559 11.1533 25.0581 11.0579 25.5894C10.9634 26.1161 10.8993 26.6157 10.8675 27.0747C10.8363 27.5243 10.8206 27.9909 10.8206 28.4622C10.8206 29.6888 11.2105 30.6818 11.9794 31.4141C12.7387 32.1367 13.7436 32.5033 14.9655 32.5033H26.2796C27.5015 32.5033 28.5059 32.1369 29.2655 31.4141C30.0346 30.6823 30.4245 29.6891 30.4245 28.462C30.4243 27.9886 30.4083 27.5216 30.377 27.0741Z" fill="white"/>
</svg>
